<svg id="Calque_1" data-name="Calque 1" xmlns="http://www.w3.org/2000/svg" viewBox="0 0 483 205.26"><defs><style>.cls-1{isolation:isolate;}.cls-2{fill:#dddae5;}.cls-3{fill:#e7a900;}</style></defs><title>Plan de travail 1</title><g id="Calque_2" data-name="Calque 2"><g id="Calque_1-2" data-name="Calque 1-2"><g class="cls-1"><g class="cls-1"><path class="cls-2" d="M111.44,160.93H99.6L67.65,99.24H30.84v61.69H20.65V27.09H71.6a44.94,44.94,0,0,1,19.78,4.18A31.73,31.73,0,0,1,105,43.57q5,8.11,5,19.41,0,14.68-8.21,24.15T79.13,99.06ZM99.78,63.17q0-13.32-8-20.2T70.32,36.09H30.84V90.25H70.32a39.8,39.8,0,0,0,11.93-1.7,26,26,0,0,0,9.27-5,22.74,22.74,0,0,0,6.06-8.45A30.05,30.05,0,0,0,99.78,63.17Z"/><path class="cls-2" d="M225.45,160.93H144.21V27.09h81.24v9h-71V89h60.5v9H154.4v54h71Z"/><path class="cls-2" d="M342.77,122.93a51.66,51.66,0,0,1-8.45,20.93,41.4,41.4,0,0,1-15.83,13.49,49.35,49.35,0,0,1-39.43,1.1,46.12,46.12,0,0,1-15.24-10.1,36.75,36.75,0,0,1-8.53-12.57,52.5,52.5,0,0,1-3.22-15.15q-.63-8.53-.64-26.62t.64-26.62a52.5,52.5,0,0,1,3.22-15.15,36.85,36.85,0,0,1,8.53-12.57A46.15,46.15,0,0,1,279,29.57a49.78,49.78,0,0,1,39.61,1.1,41.2,41.2,0,0,1,15.74,13.45,51.77,51.77,0,0,1,8.4,21H332.49q-2.94-14-12.35-22T297.33,35a37.15,37.15,0,0,0-13.72,2.58,33.81,33.81,0,0,0-11.71,7.71,29.66,29.66,0,0,0-5.55,7.43,36.21,36.21,0,0,0-3.08,9.73,91.73,91.73,0,0,0-1.37,13.4q-.28,7.53-.28,18.18,0,15.88.64,24.19a50.9,50.9,0,0,0,2.85,14.09,29.38,29.38,0,0,0,6.79,10.37,34.49,34.49,0,0,0,11.66,7.71A36.45,36.45,0,0,0,297.33,153a35.84,35.84,0,0,0,16.2-3.63,34,34,0,0,0,12.39-10.56,40.1,40.1,0,0,0,6.94-15.92Z"/></g><g class="cls-1"><path class="cls-3" d="M432.27,29.33V130.85c0,9.4,4.14,12.78,10.72,12.78s10.71-3.38,10.71-12.78V29.33h19.55v100.2c0,21.06-10.52,33.09-30.83,33.09s-30.83-12-30.83-33.09V29.33Z"/></g></g></g></g></svg>